<?xml version="1.0" standalone="no"?>
<svg xmlns="http://www.w3.org/2000/svg" viewBox="435 330 100 85">
  <path fill="#ac9a57" d="M526.84,341.15c.04-.34-.2-.62-.54-.63-7.47-.36-18.83-.01-31.77,4.06-13.36,4.2-19.48,7.89-25.68,12.93-25.42,20.7-25.52,62.42-24.52,62.67.41.1,1.45-6.46,6.38-16.51,5.44-11.09,13.31-17.47,20.45-23.48,13.38-11.26,31.5-18.26,31.63-17.88.1.29-17.69,11.12-30.7,23.54-7.13,6.82-12.87,16.83-14.27,19.38-.08.15-.1.32-.06.47,0,0,.07.24.37.42,8.33,4.94,18.82,3.44,18.82,3.44,16.7-2.59,31.39-21.47,36.2-28.89,9.56-14.74,12.65-29.52,13.67-39.52Z"/>
</svg>