<?xml version="1.0" standalone="no"?>
<!DOCTYPE svg PUBLIC "-//W3C//DTD SVG 1.1//EN" "http://www.w3.org/Graphics/SVG/1.1/DTD/svg11.dtd">
<svg xmlns="http://www.w3.org/2000/svg" id="Layer_1" data-name="Layer 1" viewBox="170 207 1564 666">
  <defs>
    <style>
      .cls-1 {
        fill: #ac9a57;
      }

      .cls-2 {
        fill: #323217;
      }

      .cls-3 {
        fill: #4c1315;
      }
    </style>
  </defs>
  <g>
    <path class="cls-3" d="M409.81,379.2c-7.82-6.08-19.91-14.23-36.1-20.49-16.23-6.27-29.76-8.01-40.32-9.11-44-4.57-91.94-3.77-111.65-3.25v137.67c10.05,2.33,34.37,6.49,61.24-4.34,14.01-5.64,24.11-13.5,30.56-19.51-.11,18.43-.21,36.86-.32,55.28-7.84-5.96-24.78-17.13-49.11-20.49-18.39-2.54-33.48.44-42.38,2.93v180.18c.09,5.41,5.68,12.33,13.47,12.33h-51.23c.57-.07,4.82-.63,7.3-4.53,2.13-3.35,1.45-6.79,1.3-7.48v-324.9c.17-1.55.31-4.83-1.3-8.46-2.16-4.86-6.06-7.15-7.36-7.84h221.66l4.23,41.99Z"/>
    <path class="cls-3" d="M471.6,692.53h-37.71c.27-82.12.53-164.23.8-246.35.04-1.3.07-2.6.11-3.9l23.42-7.08v245.67c.2,1.23.93,4.75,3.99,7.73,3.75,3.66,8.32,3.89,9.39,3.92Z"/>
    <path class="cls-3" d="M933.97,684.77c-1.55-5.21-3-11.44-3.9-18.54-.8-6.3-1.01-12.03-.92-16.99-13.88,13.6-38.37,34.3-73.37,42.61-12.52,2.97-25.58,4.53-38.75,4.6-18.85.66-37.31-4-51.56-13.03-12.16-7.7-18.66-17.63-21.92-22.44-4.27-6.3-12.23-18.03-13.95-34.23-3.15-29.72,17.1-51.87,20.81-55.93,2.17-2.13,5.5-5.22,9.85-8.54,24.35-18.57,50.44-21.37,65.31-23.3,25.59-3.32,57.95-9.24,102.44-19.95.12-5.92-.35-14.62-3.37-24.54-.59-1.95-7.07-22.56-21.93-35.11-26.15-22.09-76.42-17.65-103.74,10.85-15.86,16.55-19.7,36.74-20.81,46.83-9.1-7.37-18.21-14.74-27.32-22.11,9.13-11.17,45.06-52.39,102.46-57.08,12.08-.99,59.01-4.82,86.15,25.43,15.76,17.56,19.67,38.19,19.51,66.34-.29,50.73-.58,101.46-.87,152.19.12,1.5.53,4.06,2.16,6.68,3.08,4.96,8.16,6.4,9.42,6.72-1.16.54-15.72,6.99-27.59-1.02-4.36-2.94-6.81-6.8-8.13-9.43ZM928.18,521.82c-27.17,6-49.47,11.58-65.76,15.85-16.6,4.35-23.66,6.47-31.22,9.11-24.69,8.59-38.58,13.43-49.15,22.74-20.42,17.99-33.66,57.3-16.93,86.59,22.29,39.04,82.03,30.23,87.72,28.9,32.17-7.47,66.08-25.7,76.31-55.68l-.98-107.51Z"/>
    <path class="cls-3" d="M997.61,442.17l24.36-5.42c-.07,29.34-.13,58.68-.2,88.02,9.78-50.02,43.98-86.81,78.36-89.68,45.39-3.78,102.84,50.56,96.47,129.99v116.79c0,5.36,5.57,12.33,13.29,12.35h-37.03s-.61-61.39-.61-129.14-30.26-115.8-64.48-122.24c-2.52-.38-5.08-.57-7.65-.58-38.58,0-70.88,42.43-78.18,98.58-.16,51.12-.33,102.24-.49,153.35-7.94,0-15.89,0-23.84,0v-252.02"/>
    <path class="cls-3" d="M499.41,442.17l24.36-5.42c-.07,29.34-.13,58.68-.2,88.02,9.78-50.02,43.98-86.81,78.36-89.68,45.39-3.78,102.84,50.56,96.47,129.99v116.79c0,5.36,5.57,12.33,13.29,12.35h-37.03s-.61-61.39-.61-129.14-30.26-115.8-64.48-122.24c-2.52-.38-5.08-.57-7.65-.58-38.58,0-70.88,42.43-78.18,98.58-.16,51.12-.33,102.24-.49,153.35-7.94,0-15.89,0-23.84,0v-252.02"/>
    <path class="cls-3" d="M1440.53,658.47c-22.21,23.08-51.49,35.79-82.44,35.79-4.11,0-8.2-.23-12.24-.68-62.9-5.93-115.87-57.14-115.87-128.9,0-61.35,50.76-129.62,128.12-129.62,11.75,0,23.56,2.51,23.56,2.51,29.18,6.55,48.35,24.2,57.39,33.9-.03,6.82-.05,13.64-.08,20.46-3.14-4.41-38.53-52.65-88.87-49.36-56.34,3.69-91.65,69.34-91.65,121.99s34.06,119.25,96.25,122.42c.97.05,2,.09,3.4.1,37.49.33,64.66-14.71,82.45-28.61Z"/>
  </g>
  <path class="cls-3" d="M1693.46,646.66c0,.43.4.43,1.21,1.29-21.8,28.46-56.11,46.58-99.31,46.58-77.1,0-125.14-58.22-125.14-130.25,0-81.08,48.04-130.25,125.14-130.25s123.13,49.6,125.55,124.21v3.88h-221.22v2.16c0,75.48,38.75,119.47,95.67,122.49h6.46c63.79,0,90.02-41.4,90.02-41.4.81.87,1.22,1.3,1.62,1.3ZM1499.68,558.25h191.35c-1.61-74.18-37.14-120.76-95.68-120.76s-93.66,48.3-95.67,120.76Z"/>
  <g>
    <path class="cls-2" d="M212.23,311.93c-2.84,0-4.27-.81-4.27-2.43,0-1.27.79-1.9,2.36-1.9l3.22.33c2.63,0,4.38-1.47,5.25-4.4.79-2.49,1.18-6.96,1.18-13.39v-61.37h-1.77c-7.66,0-13.76.79-18.31,2.36-3.15,1.14-5.29,3.08-6.43,5.84-.83,2.01-1.71,3.02-2.63,3.02-1.27,0-1.9-.74-1.9-2.23,0-.44.1-.94.3-1.51.19-.57.43-1.25.69-2.03.7-2.1,1.12-4.29,1.25-6.56s.38-3.79.75-4.56c.37-.77.89-1.15,1.54-1.15s1.25.06,1.77.16c.53.11,1.29.23,2.3.36,2.63.35,5.93.53,9.91.53h41.61c3.24,0,5.59-.18,7.05-.53,1.47-.35,2.53-.53,3.18-.53,1.44,0,2.17.68,2.17,2.03,0,.7-.13,1.53-.39,2.49-.66,2.14-1.08,3.99-1.28,5.55-.19,1.55-.38,2.82-.56,3.81-.18.98-.37,1.76-.59,2.33-.35.96-.88,1.44-1.58,1.44s-1.15-.25-1.35-.75c-.19-.5-.4-1.48-.62-2.92s-.59-2.63-1.12-3.54c-.53-.92-1.23-1.64-2.1-2.17-1.53-.96-4.03-1.44-7.48-1.44h-14.11v61.37c0,6.61.3,10.86.88,12.77.59,1.9,1.31,3.21,2.17,3.94.85.72,1.98,1.08,3.38,1.08l3.15-.33c1.58,0,2.36.63,2.36,1.9,0,1.62-1.4,2.43-4.2,2.43-1.44,0-2.98-.13-4.59-.39-5.25-.83-9.75-.97-13.49-.43-3.74.55-6.31.82-7.71.82Z"/>
    <path class="cls-2" d="M273.86,311.93c-2.89,0-4.33-.81-4.33-2.43,0-1.27.81-1.9,2.43-1.9l3.28.33c1.01,0,1.84-.18,2.49-.56s1.16-1.17,1.51-2.4c.7-2.23,1.05-7.18,1.05-14.83v-51.59c0-4.16-.33-6.86-.98-8.1-.66-1.25-1.36-2.09-2.1-2.53-.74-.44-1.93-.79-3.58-1.05-1.64-.26-2.46-.94-2.46-2.03,0-1.01,1.12-1.73,3.35-2.17,5.21-1.09,8.8-2.19,10.76-3.28,2.67-1.53,4.49-2.3,5.48-2.3s1.48.5,1.48,1.51c0,.48-.09.98-.26,1.51-.92,2.36-1.4,5.36-1.44,8.99-.04,3.63-.07,6.61-.07,8.93v25.6c3.63-6.96,8.77-11.49,15.42-13.59,2.1-.66,4.2-.98,6.3-.98,6.39,0,11.33,1.86,14.83,5.58,3.5,3.72,5.25,9.52,5.25,17.39v18.12c0,7.66.26,12.35.79,14.08.53,1.73,1.12,2.78,1.77,3.15.66.37,1.49.56,2.49.56l3.28-.33c1.62,0,2.43.63,2.43,1.9,0,1.62-1.47,2.43-4.4,2.43-1.66,0-3.43-.17-5.32-.49-1.88-.33-3.91-.49-6.07-.49s-4.23.16-6.17.49c-1.95.33-3.75.49-5.42.49-2.93,0-4.4-.81-4.4-2.43,0-1.27.81-1.9,2.43-1.9l3.28.33c1.01,0,1.84-.18,2.49-.56s1.18-1.17,1.58-2.4c.7-2.19,1.05-7.13,1.05-14.83v-14.97c0-12.47-4.59-18.71-13.78-18.71-6.65,0-11.71,3.46-15.16,10.37-1.23,2.41-2.12,5.25-2.69,8.53v14.77c0,7.66.26,12.35.79,14.08.53,1.73,1.12,2.78,1.77,3.15.66.37,1.49.56,2.49.56l3.28-.33c1.62,0,2.43.63,2.43,1.9,0,1.62-1.44,2.43-4.33,2.43-1.66,0-3.39-.17-5.19-.49-1.79-.33-3.85-.49-6.17-.49s-4.43.16-6.33.49c-1.91.33-3.69.49-5.35.49Z"/>
    <path class="cls-2" d="M358.1,303.56c-2.56-2.83-4.53-6.16-5.91-10.01-1.38-3.85-2.07-8.13-2.07-12.83s.81-9.03,2.43-12.96,3.85-7.31,6.69-10.11c5.91-5.82,13.19-8.73,21.86-8.73,7.18,0,12.97,2.36,17.39,7.09,4.2,4.55,6.3,10.17,6.3,16.87,0,2.19-.29,3.69-.89,4.49-.59.81-1.32,1.29-2.2,1.44-.88.16-2.08.29-3.61.39-1.53.11-3.39.23-5.58.36-2.19.13-4.63.26-7.32.39-2.69.13-5.44.28-8.24.46-6.43.39-11.6.79-15.49,1.18.96,11.77,5.47,19.41,13.52,22.91,2.63,1.14,5.43,1.71,8.4,1.71,6.3,0,11.29-1.84,14.97-5.51,1.58-1.58,2.78-2.36,3.61-2.36,1.58,0,2.36.94,2.36,2.82,0,.96-.66,2.12-1.97,3.48-1.31,1.36-3.19,2.76-5.64,4.2-4.33,2.49-9.39,3.74-15.16,3.74s-10.49-.8-14.15-2.4c-3.65-1.59-6.76-3.81-9.32-6.63ZM361.35,276.75c20.52-1.05,31.33-2.17,32.42-3.35.39-.44.59-1.73.59-3.87s-.42-4.24-1.25-6.27c-.83-2.04-1.95-3.78-3.35-5.22-2.89-2.93-6.48-4.4-10.76-4.4-4.86,0-8.95,2.03-12.27,6.1-3.5,4.24-5.29,9.91-5.38,17Z"/>
  </g>
  <g>
    <path class="cls-2" d="M1181.4,740.85c3.64,0,5.46,1.03,5.46,3.08s-1.21,3.07-3.63,3.07c-3.01,0-5.2.64-6.58,1.91-2.2,2.08-4.31,5.78-6.33,11.09l-37.17,97.54c-1.44,3.58-2.83,5.37-4.16,5.37-1.68,0-3.23-2.05-4.68-6.15l-20.44-60.21-25.47,60.99c-1.45,3.58-2.75,5.37-3.9,5.37-1.5,0-3.07-2.05-4.68-6.15l-40.38-96.42c-2.43-5.54-4.22-8.95-5.37-10.23-1.91-2.08-4.17-3.12-6.8-3.12s-3.94-1.03-3.94-3.12c0-.81.46-1.51,1.38-2.12.92-.61,2.19-.91,3.82-.91s2.94.08,3.98.22,2.08.3,3.12.47c2.88.47,5.78.7,8.67.7l14.99-1.39c3.75,0,5.63.98,5.63,2.95,0,.81-.32,1.53-.96,2.17-.63.63-1.72.95-3.25.95s-2.83.1-3.9.3c-1.07.2-1.89.5-2.47.91-.92.58-1.38,1.57-1.38,2.95,0,2.94,1.16,7.16,3.47,12.65l31.44,75.46,22.18-53.71-8.14-24.18c-1.9-5.6-3.73-9.18-5.46-10.74-2.59-2.25-5.45-3.42-8.58-3.51-3.12-.08-4.68-1.14-4.68-3.16,0-.81.46-1.51,1.38-2.12s2.2-.91,3.82-.91,2.94.08,3.98.22,2.11.3,3.2.47c2.83.47,5.69.7,8.58.7l19.23-1.39c3.76,0,5.63.96,5.63,2.86s-1.56,2.86-4.68,2.86c-6.01,0-9.01,1.88-9.01,5.63,0,3.41,1.15,8.43,3.46,15.08l24.34,71.12,26.68-74.41c1.68-4.73,2.52-8.17,2.52-10.31,0-4.73-3.58-7.11-10.74-7.11-2.49,0-3.73-.95-3.73-2.86s1.88-2.86,5.63-2.86c1.85,0,3.95.23,6.28.69,2.34.47,5.21.7,8.62.7l12.99-1.39Z"/>
    <path class="cls-2" d="M1178.92,799.67c0-8.72,1.63-16.73,4.89-24.04,3.27-7.3,7.68-13.6,13.26-18.88,5.57-5.28,12.02-9.38,19.36-12.3,7.33-2.92,15.24-4.37,23.74-4.37s16.38,1.55,23.65,4.63c7.28,3.09,13.51,7.35,18.71,12.78,10.92,11.49,16.38,26.08,16.38,43.75,0,16.74-5.63,30.75-16.89,42.01-11.49,11.49-26.11,17.24-43.84,17.24s-31.59-5.81-42.8-17.42c-10.98-11.43-16.46-25.9-16.46-43.4ZM1193.73,794.74c0,7.51,1.23,14.89,3.68,22.13,2.46,7.25,5.94,13.56,10.44,18.93,9.65,11.67,21.83,17.5,36.56,17.5,11.38,0,20.71-4.27,27.98-12.82,7.51-8.78,11.26-20.33,11.26-34.65,0-16.93-4.53-30.96-13.6-42.1-9.01-10.98-20.42-16.47-34.22-16.47-11.38,0-21.17,4.33-29.37,13-8.49,9.01-12.73,20.5-12.73,34.48Z"/>
    <path class="cls-2" d="M1311.65,859.63c-3.64,0-5.46-1.03-5.46-3.08s1.21-3.07,3.63-3.07c3.64,0,6.21-.55,7.71-1.65,2.95-2.13,4.68-5.8,5.2-11,.12-1.21.25-3.06.39-5.54.15-2.48.32-5.39.52-8.71.2-3.32.39-6.99.56-11,.17-4.02.36-8.15.56-12.39.2-4.24.39-8.5.56-12.78.17-4.27.32-8.34.43-12.21.29-9.65.43-15.74.43-18.28s-.19-4.53-.56-5.98-.91-2.63-1.6-3.55c-1.27-1.62-3.32-2.63-6.15-3.03-4.97-.69-7.45-1.76-7.45-3.21,0-.98.36-1.77,1.08-2.38.72-.61,1.66-.91,2.82-.91l13.6,1.22,7.63-.35c1.38,0,2.54.6,3.46,1.78s1.97,2.93,3.12,5.24l41.93,86.89c.98-2.25,2.28-5.23,3.9-8.92,1.62-3.7,3.39-7.8,5.32-12.3,1.94-4.51,4-9.27,6.2-14.3,2.2-5.02,4.36-10.02,6.5-14.99,2.13-4.97,4.18-9.73,6.15-14.29,1.96-4.56,3.69-8.62,5.2-12.17,1.5-3.55,2.74-6.45,3.73-8.71.98-2.26,1.66-3.85,2.03-4.81.38-.95,1.11-1.83,2.21-2.64,1.1-.81,2.39-1.22,3.9-1.22l8.14.35,10.39-.78c4.33,0,6.5,1.07,6.5,3.21,0,1.04-.95,1.75-2.86,2.12-1.91.38-3.52.7-4.85,1-1.33.29-2.57.72-3.73,1.3-2.66,1.44-3.98,3.84-3.98,7.19l4.42,84.81c.46,7.45,3.26,11.67,8.4,12.64,1.44.23,2.86.35,4.24.35,2.48,0,3.73,1.03,3.73,3.07s-1.82,3.08-5.45,3.08c-1.45,0-2.69-.07-3.73-.22-1.04-.14-2.08-.27-3.12-.39-3.12-.46-5.95-.69-8.49-.69l-18.46,1.3c-3.75,0-5.63-1.07-5.63-3.21,0-1.79,1.35-2.68,4.07-2.68s4.7-.21,5.94-.65c1.24-.43,2.15-1.11,2.73-2.04.81-1.39,1.21-4.65,1.21-9.79v-8.14c0-3.93-.28-11.9-.87-23.91-.58-12.01-.98-20.59-1.21-25.73-.47-10.86-.9-19.09-1.3-24.69l-40.98,93.91c-1.5,3.41-2.86,5.12-4.07,5.12-.81,0-1.49-.42-2.04-1.26-.55-.83-1.29-2.18-2.21-4.02l-41.93-86.37c-2.2,29.39-3.29,56.28-3.29,80.65,0,4.74,3.84,7.11,11.52,7.11,2.08,0,3.12.83,3.12,2.51,0,2.14-1.88,3.21-5.63,3.21l-14.03-1.3c-2.94,0-5.72.21-8.32.65-2.6.43-4.53.65-5.8.65Z"/>
    <path class="cls-2" d="M1476.3,858.97c-2.57.43-5.34.65-8.32.65s-4.46-.97-4.46-2.9,1.36-2.9,4.07-2.9,4.85-.52,6.06-1.56c1.97-1.79,3.9-4.7,5.81-8.75,1.9-4.04,3.68-7.83,5.33-11.34,1.64-3.52,3.54-7.64,5.67-12.35,2.13-4.71,4.49-9.97,7.06-15.77,2.57-5.81,5.26-11.97,8.1-18.5,7.39-17.15,12.28-28.69,14.64-34.61,2.37-5.92,3.68-9.2,3.94-9.84.27-.63.54-1.21.83-1.73.75-1.21,1.38-1.82,1.9-1.82s.96.07,1.3.22c.35.14.72.42,1.13.82.87,1.1,1.73,2.73,2.6,4.9.87,2.17,2.04,5.1,3.51,8.79,1.47,3.7,3.16,7.88,5.06,12.57,1.91,4.68,3.93,9.7,6.07,15.07,2.13,5.37,4.29,10.73,6.45,16.07,2.17,5.34,4.27,10.53,6.33,15.55,2.05,5.03,3.88,9.56,5.5,13.6,4.97,12.07,8.15,19.29,9.53,21.65,1.38,2.37,2.54,4.02,3.47,4.94,1.44,1.38,3.58,2.08,6.41,2.08s4.24.97,4.24,2.9-1.82,2.9-5.46,2.9c-1.56,0-2.9-.07-4.02-.22-1.13-.14-2.27-.27-3.43-.39-3.35-.46-6.32-.69-8.92-.69l-16.72,1.3c-3.75,0-5.63-1.07-5.63-3.21,0-1.73,1.03-2.6,3.12-2.6l5.2.61c2.19,0,3.63-.47,4.33-1.43.7-.95,1.04-2.15,1.04-3.6,0-2.71-1.16-6.93-3.47-12.64l-7.19-18.02h-48.09c-1.38,3.47-2.67,6.64-3.85,9.53-1.18,2.89-2.26,5.69-3.25,8.4-1.56,4.39-2.34,7.84-2.34,10.35s.45,4.36,1.35,5.54c.89,1.18,2.58,1.78,5.06,1.78l5.2-.43c2.08,0,3.12.83,3.12,2.51,0,2.14-1.88,3.21-5.63,3.21l-14.38-1.3c-2.94,0-5.7.21-8.27.65ZM1544.43,811.37l-20.62-51.64c-3.98,10.11-11.12,27.32-21.39,51.64h42.01Z"/>
    <path class="cls-2" d="M1599.44,859.63c-3.76,0-5.63-1.07-5.63-3.21,0-1.68,1.04-2.51,3.12-2.51l4.25.43c3.46,0,5.78-1.93,6.93-5.81,1.04-3.29,1.56-9.18,1.56-17.67v-60.99c0-8.55-.4-14.11-1.21-16.68-.81-2.57-1.78-4.33-2.9-5.28-1.13-.95-2.59-1.43-4.37-1.43l-4.25.43c-2.08,0-3.12-.87-3.12-2.6,0-2.25,1.88-3.38,5.63-3.38l11.34,1.3c2.43,0,4.59-.17,6.5-.52l79.79,92.78v-64.8c0-8.43-.45-13.98-1.35-16.63-.89-2.66-1.92-4.46-3.07-5.41-1.16-.96-2.66-1.43-4.51-1.43l-4.24.34c-2.08,0-3.12-.83-3.12-2.51,0-2.13,1.88-3.21,5.63-3.21,1.45,0,3.38.21,5.81.61,3.06.52,5.83.78,8.32.78s4.91-.23,7.28-.7c2.37-.46,5.14-.69,8.32-.69s4.77,1.07,4.77,3.21c0,1.68-1.04,2.51-3.12,2.51l-4.24-.34c-3.52,0-5.86,1.93-7.02,5.8-.98,3.07-1.47,8.95-1.47,17.68v87.5c0,1.96-.17,3.26-.52,3.9-.35.63-.9.95-1.64.95-1.04,0-2.69-1.22-4.94-3.64l-79.87-92.52v64.98c0,8.72.39,14.34,1.17,16.85.78,2.52,1.73,4.24,2.86,5.2,1.13.95,2.61,1.43,4.46,1.43l4.16-.43c2.08,0,3.12.83,3.12,2.51,0,2.14-1.66,3.21-4.99,3.21s-6.27-.22-8.83-.65c-2.57-.43-5.07-.65-7.5-.65s-4.81.21-7.15.65c-2.33.43-4.31.65-5.93.65Z"/>
  </g>
  <path class="cls-1" d="M526.84,341.15c.04-.34-.2-.62-.54-.63-7.47-.36-18.83-.01-31.77,4.06-13.36,4.2-19.48,7.89-25.68,12.93-25.42,20.7-25.52,62.42-24.52,62.67.41.1,1.45-6.46,6.38-16.51,5.44-11.09,13.31-17.47,20.45-23.48,13.38-11.26,31.5-18.26,31.63-17.88.1.29-17.69,11.12-30.7,23.54-7.13,6.82-12.87,16.83-14.27,19.38-.08.15-.1.32-.06.47,0,0,.07.24.37.42,8.33,4.94,18.82,3.44,18.82,3.44,16.7-2.59,31.39-21.47,36.2-28.89,9.56-14.74,12.65-29.52,13.67-39.52Z"/>
</svg>